<svg xmlns="http://www.w3.org/2000/svg" xmlns:xlink="http://www.w3.org/1999/xlink" width="500" zoomAndPan="magnify" viewBox="0 0 375 374.999991" height="500" preserveAspectRatio="xMidYMid meet" version="1.0"><defs><clipPath id="581e6f7279"><path d="M 112.5 112.5 L 262.5 112.5 L 262.5 262.5 L 112.5 262.5 Z M 112.5 112.5 " clip-rule="nonzero"/></clipPath></defs><g clip-path="url(#581e6f7279)"><path fill="#000000" d="M 187.5 112.5 C 146.070312 112.5 112.5 146.070312 112.5 187.5 C 112.5 228.929688 146.070312 262.5 187.5 262.5 C 228.929688 262.5 262.5 228.929688 262.5 187.5 C 262.433594 146.070312 228.863281 112.5 187.5 112.5 Z M 231.265625 170.617188 C 231.265625 170.617188 232.566406 199.316406 210.746094 217.109375 C 178.085938 243.667969 142.824219 222.109375 142.824219 222.109375 C 142.824219 222.109375 151.394531 222.242188 158.992188 220.226562 C 166.527344 218.214844 171.980469 213.277344 171.980469 213.277344 C 171.980469 213.277344 163.734375 211.589844 159.449219 208.472656 C 155.164062 205.355469 153.472656 199.382812 153.472656 199.382812 C 153.472656 199.382812 156.332031 199.644531 158.085938 199.578125 C 159.902344 199.511719 162.046875 198.667969 162.046875 198.667969 C 162.046875 198.667969 156.136719 197.953125 150.617188 191.785156 C 146.265625 186.914062 146.589844 178.796875 146.589844 178.796875 C 146.589844 178.796875 149.1875 180.355469 150.550781 180.683594 C 151.914062 181.070312 154.578125 181.070312 154.578125 181.070312 C 154.578125 181.070312 149.382812 178.019531 147.109375 170.03125 C 144.835938 162.109375 149.1875 154.058594 149.1875 154.058594 C 149.1875 154.058594 156.914062 163.410156 168.34375 169.382812 C 179.773438 175.355469 190.550781 175.164062 190.550781 175.164062 C 190.550781 175.164062 188.992188 170.421875 191.722656 163.410156 C 194.449219 156.394531 200.617188 151.332031 210.03125 150.617188 C 219.449219 149.835938 225.488281 156.980469 225.488281 156.980469 C 225.488281 156.980469 228.410156 156.460938 231.722656 155.226562 C 235.03125 154.058594 238.34375 152.5 238.34375 152.5 C 238.34375 152.5 237.175781 156.070312 234.902344 158.863281 C 232.628906 161.65625 230.097656 163.34375 230.097656 163.34375 C 230.097656 163.34375 233.085938 163.148438 236.070312 162.304688 C 239.058594 161.460938 240.683594 160.617188 240.683594 160.617188 C 237.242188 166.332031 231.265625 170.617188 231.265625 170.617188 Z M 231.265625 170.617188 " fill-opacity="1" fill-rule="nonzero"/></g></svg>